<?xml version="1.0" ?><!DOCTYPE svg  PUBLIC '-//W3C//DTD SVG 1.1//EN'  'http://www.w3.org/Graphics/SVG/1.1/DTD/svg11.dtd'><svg id="Layer_1" style="enable-background:new 0 0 76 76;" version="1.1" viewBox="0 0 76 76" xml:space="preserve" xmlns="http://www.w3.org/2000/svg" xmlns:xlink="http://www.w3.org/1999/xlink"><style type="text/css">
	.st0{fill:#3DA5AA;}
	.st1{fill:#EDEFF4;}
	.st2{fill:#543D53;}
	.st3{fill:#EF716F;}
	.st4{fill:#F2E199;}
	.st5{fill:#6D7C7C;}
	.st6{fill:#E1E3EA;}
	.st7{fill:#FFFFFF;}
	.st8{fill:#F7796B;}
	.st9{opacity:0.3;}
	.st10{fill:#E8635E;}
	.st11{fill:#CC4848;}
	.st12{fill:#8E8D96;}
	.st13{fill:#E26959;}
	.st14{fill:#A3E2E5;}
	.st15{fill:#E5C67A;}
	.st16{fill:#FC7D70;}
	.st17{fill:none;stroke:#543D53;stroke-width:1.5;stroke-linecap:round;stroke-linejoin:round;stroke-miterlimit:10;}
	.st18{fill:#FFFFFF;stroke:#543D53;stroke-width:1.5;stroke-linecap:round;stroke-linejoin:round;stroke-miterlimit:10;}
	.st19{fill:#97C97D;}
	.st20{fill:#BEEAA2;}
	.st21{fill:#F0C419;}
	.st22{fill:#DDDDE7;}
	.st23{fill:#89BC6C;}
	.st24{fill:#EDEFF4;stroke:#543D53;stroke-width:1.5;stroke-linecap:round;stroke-linejoin:round;stroke-miterlimit:10;}
	.st25{fill:#9B9BA5;}
	.st26{fill:#F77F7F;}
	.st27{fill:#A3E2E5;stroke:#543D53;stroke-width:1.5;stroke-linecap:round;stroke-linejoin:round;stroke-miterlimit:10;}
	.st28{fill:#EF716F;stroke:#543D53;stroke-width:1.5;stroke-linecap:round;stroke-linejoin:round;stroke-miterlimit:10;}
	.st29{fill:#3DA5AA;stroke:#543D53;stroke-width:1.5;stroke-linecap:round;stroke-linejoin:round;stroke-miterlimit:10;}
	.st30{fill:#70737F;stroke:#543D53;stroke-width:1.5;stroke-linecap:round;stroke-linejoin:round;stroke-miterlimit:10;}
	.st31{fill:#6D7C7C;stroke:#543D53;stroke-width:1.5;stroke-linecap:round;stroke-linejoin:round;stroke-miterlimit:10;}
	.st32{fill:#E1E3EA;stroke:#543D53;stroke-width:1.5;stroke-linecap:round;stroke-linejoin:round;stroke-miterlimit:10;}
	.st33{fill:#F2E199;stroke:#543D53;stroke-width:1.5;stroke-linecap:round;stroke-linejoin:round;stroke-miterlimit:10;}
	.st34{fill:#E5C67A;stroke:#543D53;stroke-width:1.5;stroke-linecap:round;stroke-linejoin:round;stroke-miterlimit:10;}
	.st35{fill:#8E8D96;stroke:#543D53;stroke-width:1.5;stroke-linecap:round;stroke-linejoin:round;stroke-miterlimit:10;}
	.st36{fill:#533D53;}
	.st37{opacity:0.3;fill:#3DA5AA;}
	.st38{fill:none;stroke:#533D53;stroke-width:1.5;stroke-linecap:round;stroke-linejoin:round;stroke-miterlimit:10;}
	.st39{opacity:0.5;}
	.st40{fill:#E0C74C;}
	.st41{fill:#EACE7F;}
</style><g><g><g><g><g><g><circle class="st1" cx="37.6" cy="38" r="32"/></g></g></g></g></g><path class="st2" d="M61.8,17l-16.5,21l-19.6-7.8c-0.3-0.1-0.6,0-0.8,0.2L7.1,47.7c0.2,0.5,0.3,1,0.5,1.5c0,0,0.1,0,0.1-0.1   l17.8-17.3l19.7,7.8c0.3,0.1,0.7,0,0.9-0.2l16.6-21.2C62.4,17.8,62.1,17.4,61.8,17z"/><path class="st19" d="M7.2,44c-0.3,0-0.7,0-1,0.1c0.6,3.1,1.6,6,3,8.6c1.5-0.7,2.6-2.3,2.6-4.1C11.8,46,9.8,44,7.2,44z"/><path class="st2" d="M7.2,43.2c-0.4,0-0.8,0-1.1,0.1c0.1,0.5,0.2,1,0.3,1.5c0.3-0.1,0.6-0.1,0.8-0.1c2.1,0,3.9,1.7,3.9,3.9   c0,1.5-0.9,2.8-2.2,3.5c0.2,0.4,0.4,0.9,0.7,1.3c1.8-0.9,3-2.7,3-4.8C12.6,45.6,10.2,43.2,7.2,43.2z"/><circle class="st14" cx="25.4" cy="31" r="4.6"/><path class="st2" d="M25.4,36.3c-3,0-5.4-2.4-5.4-5.4s2.4-5.4,5.4-5.4s5.4,2.4,5.4,5.4S28.4,36.3,25.4,36.3z M25.4,27.1   c-2.1,0-3.9,1.7-3.9,3.9s1.7,3.9,3.9,3.9s3.9-1.7,3.9-3.9S27.5,27.1,25.4,27.1z"/><g><circle class="st12" cx="45.6" cy="39" r="4.6"/><path class="st2" d="M45.6,44.3c-3,0-5.4-2.4-5.4-5.4s2.4-5.4,5.4-5.4s5.4,2.4,5.4,5.4S48.5,44.3,45.6,44.3z M45.6,35.1    c-2.1,0-3.9,1.7-3.9,3.9s1.7,3.9,3.9,3.9s3.9-1.7,3.9-3.9S47.7,35.1,45.6,35.1z"/></g><circle class="st3" cx="65" cy="14.1" r="4.6"/><path class="st2" d="M65,19.5c-3,0-5.4-2.4-5.4-5.4S62,8.8,65,8.8c3,0,5.4,2.4,5.4,5.4S68,19.5,65,19.5z M65,10.3   c-2.1,0-3.9,1.7-3.9,3.9S62.9,18,65,18c2.1,0,3.9-1.7,3.9-3.9S67.1,10.3,65,10.3z"/></g></svg>