<?xml version="1.0" ?><!DOCTYPE svg  PUBLIC '-//W3C//DTD SVG 1.1//EN'  'http://www.w3.org/Graphics/SVG/1.1/DTD/svg11.dtd'><svg id="Layer_1" style="enable-background:new 0 0 76 76;" version="1.1" viewBox="0 0 76 76" xml:space="preserve" xmlns="http://www.w3.org/2000/svg" xmlns:xlink="http://www.w3.org/1999/xlink"><style type="text/css">
	.st0{fill:#3DA5AA;}
	.st1{fill:#EDEFF4;}
	.st2{fill:#543D53;}
	.st3{fill:#EF716F;}
	.st4{fill:#F2E199;}
	.st5{fill:#6D7C7C;}
	.st6{fill:#E1E3EA;}
	.st7{fill:#FFFFFF;}
	.st8{fill:#F7796B;}
	.st9{opacity:0.3;}
	.st10{fill:#E8635E;}
	.st11{fill:#CC4848;}
	.st12{fill:#8E8D96;}
	.st13{fill:#E26959;}
	.st14{fill:#A3E2E5;}
	.st15{fill:#E5C67A;}
	.st16{fill:#FC7D70;}
	.st17{fill:none;stroke:#543D53;stroke-width:1.5;stroke-linecap:round;stroke-linejoin:round;stroke-miterlimit:10;}
	.st18{fill:#FFFFFF;stroke:#543D53;stroke-width:1.5;stroke-linecap:round;stroke-linejoin:round;stroke-miterlimit:10;}
	.st19{fill:#97C97D;}
	.st20{fill:#BEEAA2;}
	.st21{fill:#F0C419;}
	.st22{fill:#DDDDE7;}
	.st23{fill:#89BC6C;}
	.st24{fill:#EDEFF4;stroke:#543D53;stroke-width:1.5;stroke-linecap:round;stroke-linejoin:round;stroke-miterlimit:10;}
	.st25{fill:#9B9BA5;}
	.st26{fill:#F77F7F;}
	.st27{fill:#A3E2E5;stroke:#543D53;stroke-width:1.5;stroke-linecap:round;stroke-linejoin:round;stroke-miterlimit:10;}
	.st28{fill:#EF716F;stroke:#543D53;stroke-width:1.5;stroke-linecap:round;stroke-linejoin:round;stroke-miterlimit:10;}
	.st29{fill:#3DA5AA;stroke:#543D53;stroke-width:1.5;stroke-linecap:round;stroke-linejoin:round;stroke-miterlimit:10;}
	.st30{fill:#70737F;stroke:#543D53;stroke-width:1.5;stroke-linecap:round;stroke-linejoin:round;stroke-miterlimit:10;}
	.st31{fill:#6D7C7C;stroke:#543D53;stroke-width:1.5;stroke-linecap:round;stroke-linejoin:round;stroke-miterlimit:10;}
	.st32{fill:#E1E3EA;stroke:#543D53;stroke-width:1.5;stroke-linecap:round;stroke-linejoin:round;stroke-miterlimit:10;}
	.st33{fill:#F2E199;stroke:#543D53;stroke-width:1.5;stroke-linecap:round;stroke-linejoin:round;stroke-miterlimit:10;}
	.st34{fill:#E5C67A;stroke:#543D53;stroke-width:1.5;stroke-linecap:round;stroke-linejoin:round;stroke-miterlimit:10;}
	.st35{fill:#8E8D96;stroke:#543D53;stroke-width:1.5;stroke-linecap:round;stroke-linejoin:round;stroke-miterlimit:10;}
	.st36{fill:#533D53;}
	.st37{opacity:0.3;fill:#3DA5AA;}
	.st38{fill:none;stroke:#533D53;stroke-width:1.5;stroke-linecap:round;stroke-linejoin:round;stroke-miterlimit:10;}
	.st39{opacity:0.5;}
	.st40{fill:#E0C74C;}
	.st41{fill:#EACE7F;}
</style><g><g><g><circle class="st14" cx="38" cy="38" r="32"/></g></g><g><path class="st1" d="M24.7,45.1c1.7,0,3.4,0.6,4.6,1.9c1.3,1.3,1.9,2.9,1.8,4.6c1.7,0,3.4,0.6,4.6,1.9c0.1,0.1,0.3,0.3,0.4,0.4    l-17.7,3.8l0,0l4-17.5c0.2,0.1,0.3,0.3,0.5,0.4C24.2,41.8,24.8,43.4,24.7,45.1z"/></g><g><path class="st2" d="M18.5,58.3c-0.2,0-0.4-0.1-0.5-0.2c-0.2-0.2-0.3-0.4-0.2-0.7l4-17.5c0.1-0.3,0.2-0.5,0.5-0.5    c0.2-0.1,0.5,0,0.7,0.1c0.2,0.1,0.3,0.3,0.5,0.5c1.2,1.2,1.9,2.7,2,4.4c1.7,0.1,3.2,0.9,4.4,2c1.2,1.2,1.9,2.7,2,4.4    c1.7,0.1,3.2,0.9,4.4,2c0.2,0.2,0.3,0.3,0.4,0.5c0.2,0.2,0.2,0.5,0.1,0.7s-0.3,0.4-0.6,0.5l-17.7,3.8    C18.6,58.3,18.5,58.3,18.5,58.3z M22.9,41.6l-3.4,15l15.2-3.2c-1-0.7-2.1-1.1-3.4-1.1l-0.1,0c-0.2,0-0.4-0.1-0.5-0.2    s-0.2-0.3-0.2-0.6c0-1.5-0.5-2.9-1.6-4c-1.1-1.1-2.5-1.6-4-1.6c-0.2,0-0.5-0.1-0.6-0.2C24.1,45.4,24,45.2,24,45    C24,43.8,23.6,42.6,22.9,41.6z"/></g><g><path class="st3" d="M66.7,23.9c-2.9-6-7.7-10.9-13.5-14L47,15.9l13.8,13.8L66.7,23.9z"/><path class="st2" d="M66.4,23.2l-5.5,5.5L48.1,15.9l5.8-5.7c-0.5-0.3-0.9-0.5-1.4-0.7l-6,5.9c-0.1,0.1-0.2,0.3-0.2,0.5    c0,0.2,0.1,0.4,0.2,0.5l13.8,13.8c0.1,0.1,0.3,0.2,0.5,0.2c0.2,0,0.4-0.1,0.5-0.2l5.7-5.6C66.8,24.1,66.6,23.6,66.4,23.2z"/></g><g><path class="st4" d="M60.8,29.7L36.3,53.8l-0.1,0c-0.1-0.2-0.3-0.3-0.4-0.4c-1.3-1.3-2.9-1.9-4.6-1.9l26-25.5L60.8,29.7z"/><path class="st2" d="M36.2,54.5c-0.2,0-0.5-0.1-0.6-0.3c-0.1-0.1-0.2-0.3-0.4-0.4c-1.1-1.1-2.5-1.6-4-1.6l-0.1,0    c-0.3,0-0.6-0.2-0.7-0.5c-0.1-0.3-0.1-0.6,0.2-0.8l26-25.5c0.3-0.3,0.8-0.3,1.1,0l3.7,3.7c0.1,0.1,0.2,0.3,0.2,0.5    s-0.1,0.4-0.2,0.5L36.8,54.3c-0.1,0.1-0.2,0.2-0.4,0.2C36.4,54.5,36.3,54.5,36.2,54.5z M32.8,50.9c1.3,0.3,2.5,0.9,3.4,1.8    l23.5-23.1l-2.6-2.6L32.8,50.9z"/></g><g><path class="st4" d="M50.7,19.6l-26,25.5c0.1-1.6-0.6-3.3-1.8-4.6c-0.1-0.1-0.3-0.3-0.5-0.4l0-0.1L47,15.9L50.7,19.6z"/><path class="st2" d="M24.7,45.8c-0.1,0-0.2,0-0.3-0.1C24.1,45.6,24,45.4,24,45c0-1.5-0.5-2.9-1.6-4c-0.1-0.1-0.3-0.2-0.4-0.4    c-0.2-0.2-0.3-0.5-0.3-0.7c0-0.1,0.1-0.4,0.2-0.5l24.6-24.1c0.3-0.3,0.8-0.3,1.1,0l3.7,3.7c0.1,0.1,0.2,0.3,0.2,0.5    s-0.1,0.4-0.2,0.5l-26,25.5C25.1,45.7,24.9,45.8,24.7,45.8z M23.5,40c0.9,0.9,1.5,2.1,1.8,3.4l24.3-23.9L47,17L23.5,40z"/></g><g><path class="st15" d="M57.1,26l-26,25.5c0.1-1.6-0.6-3.3-1.8-4.6c-1.3-1.3-2.9-1.9-4.6-1.9l26-25.5L57.1,26z"/><path class="st2" d="M31.2,52.3c-0.1,0-0.2,0-0.3-0.1c-0.3-0.1-0.5-0.4-0.4-0.7c0-1.5-0.5-2.9-1.6-4c-1.1-1.1-2.5-1.6-4-1.6    c-0.3,0-0.6-0.2-0.8-0.5c-0.1-0.3-0.1-0.6,0.1-0.8l26-25.5c0.3-0.3,0.8-0.3,1.1,0l6.4,6.4c0.1,0.1,0.2,0.3,0.2,0.5    s-0.1,0.4-0.2,0.5L31.7,52C31.5,52.2,31.3,52.3,31.2,52.3z M26.4,44.5c1.3,0.3,2.5,0.9,3.5,1.9c1,1,1.6,2.2,1.9,3.5L56.1,26    l-5.4-5.4L26.4,44.5z"/></g><g><g><polygon class="st5" points="47,15.9 45.1,17.8 58.9,31.6 60.8,29.7    "/></g><g><path class="st2" d="M58.9,32.4c-0.2,0-0.4-0.1-0.5-0.2L44.5,18.4c-0.1-0.1-0.2-0.3-0.2-0.5s0.1-0.4,0.2-0.5l2-1.9     c0.3-0.3,0.8-0.3,1.1,0l13.8,13.8c0.1,0.1,0.2,0.3,0.2,0.5s-0.1,0.4-0.2,0.5l-2,1.9C59.2,32.3,59.1,32.4,58.9,32.4z M46.1,17.8     l12.7,12.7l0.9-0.9L47,17L46.1,17.8z"/></g></g></g></svg>